<svg xmlns="http://www.w3.org/2000/svg" width="17" height="18" viewBox="0 0 17 18">
    <path fill="#000" fill-rule="nonzero" d="M8.943 14.857c-.255-.03-.48-.06-.735-.12-.254-.06-.508-.121-.763-.211a.377.377 0 0 0-.424.09l-.17.18c-1.016 1.084-2.655 1.205-3.757.211-1.187-1.114-1.243-3.04-.141-4.214l2.684-2.86c.339-.362.763-.633 1.215-.753a2.527 2.527 0 0 1 1.695.12c.34.15.65.362.904.633.142.15.255.33.34.511.14.241.452.301.65.09l.988-1.053a.438.438 0 0 0 .028-.572 4.847 4.847 0 0 0-.48-.602 5.029 5.029 0 0 0-.848-.723 4.922 4.922 0 0 0-1.638-.692 4.582 4.582 0 0 0-3.306.542c-.396.24-.763.512-1.102.873l-2.6 2.77c-1.865 1.987-2.006 5.208-.226 7.255 1.893 2.168 5.058 2.228 7.008.15l.876-.933c.282-.21.14-.662-.198-.692zM15.44 1.34c-1.92-1.897-4.972-1.746-6.81.24l-.818.813c-.255.271-.085.693.254.723.508.03.989.15 1.497.331.142.06.311 0 .424-.09l.17-.181c1.017-1.084 2.656-1.204 3.758-.21 1.186 1.113 1.243 3.04.141 4.214l-2.684 2.86c-.34.361-.763.632-1.215.753-.565.15-1.159.12-1.696-.12-.339-.151-.65-.362-.904-.633a1.832 1.832 0 0 1-.339-.482c-.141-.24-.452-.3-.65-.09l-.989 1.054a.438.438 0 0 0-.028.572c.141.21.31.421.48.602.255.27.537.512.848.722a5.48 5.48 0 0 0 1.639.632c1.102.241 2.289.06 3.306-.541.395-.241.763-.512 1.102-.873l2.684-2.86c1.893-2.048 1.865-5.45-.17-7.436z"/>
</svg>
