<svg xmlns="http://www.w3.org/2000/svg" width="24" height="24" viewBox="0 0 24 24">
    <path fill="#FFF" fill-rule="nonzero" d="M12.18.008a11.852 11.852 0 0 0-8.61 3.26A11.494 11.494 0 0 0 0 11.646a11.334 11.334 0 0 0 3.825 8.615.966.966 0 0 1 .329.672v2.136a.97.97 0 0 0 .46.782 1 1 0 0 0 .916.07l2.436-1.044a.926.926 0 0 1 .646 0c1.151.306 2.339.46 3.532.456 6.538.01 11.846-5.204 11.856-11.645.01-6.44-5.282-11.67-11.82-11.68zm7.724 8.883l-3.665 5.704c-.279.434-.731.734-1.247.827a1.907 1.907 0 0 1-1.466-.337l-2.927-2.142a.763.763 0 0 0-.9 0L5.747 15.88a.597.597 0 0 1-.759-.033.566.566 0 0 1-.092-.738l3.665-5.704c.279-.434.731-.734 1.247-.827a1.907 1.907 0 0 1 1.466.337l2.927 2.142a.763.763 0 0 0 .9 0l3.952-2.937a.597.597 0 0 1 .759.033c.21.191.25.503.092.738z"/>
</svg>
