<svg xmlns="http://www.w3.org/2000/svg" xmlns:xlink="http://www.w3.org/1999/xlink" width="112" height="112" viewBox="0 0 112 112">
    <defs>
        <path id="a" d="M.14.296h95.42V91H.14z"/>
        <path id="c" d="M0 .552h95.421v90.706H0z"/>
    </defs>
    <g fill="none" fill-rule="evenodd">
        <path fill="#FF4338" d="M55.803 95.306c-14.237 0-14.253-.526-14.51-9.313a.752.752 0 0 1 .729-.77c.428-.033.759.313.77.728.126 4.293.23 6.068 1.556 6.896 1.538.96 5.06.96 11.455.96 6.396 0 9.919 0 11.457-.963 1.326-.829 1.43-2.61 1.554-6.916a.75.75 0 0 1 1.5.043c-.27 9.335-1.074 9.335-14.511 9.335M69.6 78.636a.75.75 0 0 1-.75-.745c-.034-5.198-.052-7.809-1.493-8.946-1.522-1.2-5.084-1.2-11.554-1.2-6.47 0-10.033 0-11.554 1.2-1.442 1.138-1.46 3.749-1.494 8.947a.75.75 0 0 1-.75.745H42a.75.75 0 0 1-.745-.755c.075-11.31.484-11.638 14.547-11.638 14.065 0 14.473.328 14.549 11.638a.75.75 0 0 1-.745.754H69.6z"/>
        <path fill="#FF4338" d="M48.11 60.016c-1.77 0-3.168 1.396-3.168 3.112 0 1.72 1.4 3.117 3.122 3.117.026 0 .053 0 .08.003v-.003h6.876c-.177-2.105-1.24-6.197-6.805-6.232-.032.003-.066.005-.099.003h-.007zm7.692 7.73h-7.659a.752.752 0 0 1-.082-.006c-2.589-.038-4.619-2.093-4.619-4.612a4.623 4.623 0 0 1 4.622-4.615h.08c6.2 0 8.408 4.381 8.408 8.482a.75.75 0 0 1-.75.75z"/>
        <path fill="#FF4338" d="M56.604 66.245h6.802c.037-.005.092-.004.167 0a3.122 3.122 0 0 0 3.11-3.116c0-1.718-1.4-3.115-3.123-3.115a.68.68 0 0 1-.078-.004v.004c-5.628 0-6.7 4.117-6.878 6.23m6.956 1.5h-7.738a.75.75 0 0 1-.75-.75c0-4.1 2.21-8.48 8.41-8.48h.078a4.623 4.623 0 0 1 4.622 4.615 4.624 4.624 0 0 1-4.622 4.616M53.502 95.303a.75.75 0 0 1-.75-.75V66.995a.75.75 0 0 1 1.5 0v27.558a.75.75 0 0 1-.75.75"/>
        <path fill="#FF4338" d="M58.103 95.303a.75.75 0 0 1-.75-.75V66.995a.75.75 0 0 1 1.5 0v27.558a.75.75 0 0 1-.75.75"/>
        <path fill="#231F20" d="M84.22 82.132l-.045-.001a.751.751 0 0 1-.704-.794c.055-.9.082-1.81.082-2.703 0-19.382-12.448-35.15-27.75-35.15s-27.75 15.768-27.75 35.15c0 .877.026 1.77.079 2.654a.75.75 0 0 1-.705.793c-.387.01-.77-.291-.793-.705a46.66 46.66 0 0 1-.081-2.742c0-20.21 13.12-36.65 29.25-36.65 16.129 0 29.25 16.44 29.25 36.65 0 .925-.028 1.864-.084 2.793a.75.75 0 0 1-.748.705"/>
        <path fill="#231F20" d="M42.042 86.7a.716.716 0 0 1-.146-.014 71.343 71.343 0 0 1-14.814-4.65.749.749 0 1 1 .602-1.373 69.927 69.927 0 0 0 14.503 4.553.748.748 0 1 1-.145 1.485M69.562 86.723a.75.75 0 0 1-.143-1.486 69.753 69.753 0 0 0 14.494-4.52.75.75 0 0 1 .6 1.375 71.27 71.27 0 0 1-14.806 4.617.791.791 0 0 1-.145.014"/>
        <path fill="#231F20" d="M42 78.636c-1.141 0-2.104 1.504-2.104 3.282 0 1.78.963 3.282 2.104 3.282 2 0 2.103-.843 2.103-3.282 0-2.438-.102-3.282-2.103-3.282m0 8.065c-2.021 0-3.604-2.1-3.604-4.782 0-2.681 1.583-4.782 3.604-4.782 3.603 0 3.603 2.65 3.603 4.781s0 4.782-3.603 4.782M69.606 78.636c-2.002 0-2.104.845-2.104 3.282 0 2.44.102 3.282 2.104 3.282 1.14 0 2.103-1.502 2.103-3.282 0-1.779-.963-3.282-2.103-3.282m0 8.065c-3.604 0-3.604-2.651-3.604-4.782 0-2.132 0-4.782 3.604-4.782 2.021 0 3.603 2.1 3.603 4.781 0 2.682-1.582 4.782-3.603 4.782"/>
        <path fill="#231F20" d="M41.667 78.632a.751.751 0 0 1-.685-.443 16.912 16.912 0 0 0-12.462-9.753.75.75 0 0 1 .263-1.477 18.415 18.415 0 0 1 13.569 10.616.751.751 0 0 1-.685 1.057M69.942 78.63a.76.76 0 0 1-.307-.065c-.378-.17-.547-.614-.378-.992a18.416 18.416 0 0 1 13.567-10.614.75.75 0 1 1 .264 1.477 16.912 16.912 0 0 0-12.46 9.75.751.751 0 0 1-.686.444M42.042 86.7a.716.716 0 0 1-.146-.014 71.343 71.343 0 0 1-14.814-4.65.749.749 0 1 1 .602-1.373 69.927 69.927 0 0 0 14.503 4.553.748.748 0 1 1-.145 1.485M55.803 48.654a18.574 18.574 0 0 1-10.276-3.085.75.75 0 0 1 .828-1.252 17.068 17.068 0 0 0 9.448 2.837c3.374 0 6.642-.98 9.45-2.837a.749.749 0 1 1 .826 1.252 18.574 18.574 0 0 1-10.276 3.085M54.098 14.361c-.59 0-1.232.07-1.91.208-2.145.438-3.606 1.332-4.467 2.731-1.05 1.703-1.235 4.248-.557 7.564 1.218 5.94 4.372 9.777 8.038 9.777.357 0 .719-.037 1.077-.109 1.882-.385 3.332-1.669 4.192-3.714.959-2.278 1.093-5.304.387-8.75-1.063-5.186-3.274-7.707-6.76-7.707m1.104 21.78c-4.477 0-8.12-4.206-9.506-10.976-.77-3.754-.525-6.584.748-8.652 1.075-1.747 2.907-2.895 5.443-3.413 5.557-1.139 9.033 1.797 10.44 8.667.767 3.743.603 7.074-.473 9.633-1.046 2.486-2.92 4.12-5.275 4.601-.456.093-.92.14-1.377.14"/>
        <path fill="#231F20" d="M55.207 33.079c-1.545 0-3.036-.966-4.265-2.785a.75.75 0 0 1 1.243-.84c.618.915 1.893 2.396 3.479 2.078 1.588-.325 2.174-2.191 2.382-3.274a.745.745 0 0 1 .878-.595.75.75 0 0 1 .595.878c-.482 2.506-1.744 4.09-3.554 4.46a3.773 3.773 0 0 1-.758.078M46.123 23.883a.749.749 0 0 1-.149-1.484L69.22 17.65a.747.747 0 0 1 .884.584.748.748 0 0 1-.584.884l-23.246 4.748a.705.705 0 0 1-.151.016M41.667 108.839a.75.75 0 0 1-.75-.75V85.974a.75.75 0 0 1 1.5 0v22.115a.75.75 0 0 1-.75.75M69.606 108.839a.75.75 0 0 1-.75-.75V85.974a.75.75 0 0 1 1.5 0v22.115a.75.75 0 0 1-.75.75M61.17 110.476a.75.75 0 0 1-.75-.75v-8.525h-9.235v8.201a.75.75 0 0 1-1.5 0v-8.95a.75.75 0 0 1 .75-.75H61.17a.75.75 0 0 1 .75.75v9.274a.75.75 0 0 1-.75.75M41.678 78.63a.753.753 0 0 1-.687-.446c-1.8-4.084-2.717-8.46-3.378-12.202-.64-3.618-.56-7.937-.555-8.12 0-2.576.172-5.163.51-7.671a.738.738 0 0 1 .843-.643.75.75 0 0 1 .643.844 56.273 56.273 0 0 0-.496 7.486c-.001.059-.081 4.373.53 7.843.647 3.653 1.54 7.92 3.277 11.857a.752.752 0 0 1-.687 1.053M69.942 78.597a.75.75 0 0 1-.687-1.052c1.612-3.664 2.68-7.81 3.462-13.447.394-2.832.477-5.574.27-8.89-.099-1.55-.218-3.207-.435-4.817a.751.751 0 0 1 .643-.844.746.746 0 0 1 .844.643c.223 1.658.345 3.346.444 4.924.214 3.42.128 6.254-.279 9.191-.804 5.778-1.907 10.048-3.575 13.844a.75.75 0 0 1-.687.448"/>
        <g transform="translate(16 20.448)">
            <mask id="b" fill="#fff">
                <use xlink:href="#a"/>
            </mask>
            <path fill="#231F20" d="M39.78 91C25.504 91 11.227 85.565.36 74.697a.749.749 0 1 1 1.06-1.06c10.246 10.246 23.87 15.889 38.36 15.889 14.49 0 28.114-5.643 38.36-15.889C97.681 54.096 99.447 23.09 82.25 1.513a.752.752 0 0 1 .118-1.055.754.754 0 0 1 1.055.119c17.673 22.175 15.86 54.039-4.222 74.12C68.333 85.565 54.056 91 39.781 91" mask="url(#b)"/>
        </g>
        <g transform="translate(0 -.552)">
            <mask id="d" fill="#fff">
                <use xlink:href="#c"/>
            </mask>
            <path fill="#231F20" d="M12.725 91.258a.753.753 0 0 1-.588-.282C-5.537 68.8-3.72 36.936 16.36 16.855c21.736-21.737 57.105-21.737 78.841 0a.749.749 0 1 1-1.06 1.06C83.894 7.669 70.27 2.025 55.78 2.025c-14.492 0-28.115 5.644-38.361 15.89C-2.123 37.455-3.889 68.463 13.31 90.04a.752.752 0 0 1-.586 1.218" mask="url(#d)"/>
        </g>
        <path fill="#231F20" d="M94.67 17.583a.703.703 0 0 1-.135-.013l-3.527-.647a.75.75 0 0 1-.602-.873.744.744 0 0 1 .873-.602l2.457.45-.451-2.457a.75.75 0 0 1 1.475-.271l.648 3.527a.748.748 0 0 1-.737.886M17.536 98.892a.75.75 0 0 1-.736-.614l-.648-3.528a.746.746 0 0 1 .207-.666.746.746 0 0 1 .666-.207l3.528.65a.749.749 0 0 1 .601.872.745.745 0 0 1-.873.601l-2.458-.45.451 2.456a.748.748 0 0 1-.738.886"/>
    </g>
</svg>
