<?xml version="1.0" encoding="UTF-8"?>
<svg width="8px" height="5px" viewBox="0 0 8 5" version="1.1" xmlns="http://www.w3.org/2000/svg" xmlns:xlink="http://www.w3.org/1999/xlink">
    <!-- Generator: Sketch 51.1 (57501) - http://www.bohemiancoding.com/sketch -->
    <title>Fill 302 Copy 5</title>
    <desc>Created with Sketch.</desc>
    <defs></defs>
    <g id="Page-1" stroke="none" stroke-width="1" fill="none" fill-rule="evenodd">
        <g id="support---tablet" transform="translate(-236.000000, -401.000000)" fill="#333333">
            <path d="M240,404.090418 L242.589482,401.475196 C242.846504,401.215619 243.26529,401.213548 243.524867,401.47057 C243.526587,401.472273 243.528298,401.473986 243.53,401.475709 L243.53,401.475709 C243.790487,401.739359 243.790487,402.163475 243.53,402.427126 L240,406 L236.47,402.427126 C236.209513,402.163475 236.209513,401.739359 236.47,401.475709 L236.47,401.475709 C236.726739,401.215851 237.145522,401.213324 237.405379,401.470062 C237.407102,401.471764 237.408815,401.473475 237.410518,401.475196 L240,404.090418 Z" id="Fill-302-Copy-5" transform="translate(240.000000, 403.500000) scale(-1, 1) translate(-240.000000, -403.500000) "></path>
        </g>
    </g>
</svg>