<svg xmlns="http://www.w3.org/2000/svg" width="24" height="25" viewBox="0 0 24 25">
    <g fill="none" fill-rule="evenodd" transform="translate(1)">
        <path stroke="#333" d="M20.655 24H1.345C.608 24 0 23.42 0 22.716V4.284C0 3.579.608 3 1.345 3h19.31C21.394 3 22 3.579 22 4.284v18.432c0 .705-.606 1.284-1.345 1.284z"/>
        <path fill="#333" d="M10.429 18.429a.571.571 0 0 0 1.142 0V15.57h2.858a.571.571 0 0 0 0-1.142H11.57V11.57a.571.571 0 0 0-1.142 0v2.858H7.57a.571.571 0 0 0 0 1.142h2.858v2.858z"/>
        <path fill="#333" fill-rule="nonzero" d="M0 6h22v1H0z"/>
        <rect width="1" height="3" x="3" fill="#333" fill-rule="nonzero" rx=".5"/>
        <rect width="1" height="3" x="18" fill="#333" fill-rule="nonzero" rx=".5"/>
    </g>
</svg>
