<?xml version="1.0" encoding="UTF-8"?>
<svg width="100px" height="100px" viewBox="0 0 100 100" version="1.1" xmlns="http://www.w3.org/2000/svg" xmlns:xlink="http://www.w3.org/1999/xlink">
    <!-- Generator: Sketch 51.3 (57544) - http://www.bohemiancoding.com/sketch -->
    <title>Group 71</title>
    <desc>Created with Sketch.</desc>
    <defs>
        <polygon id="path-1" points="0.00012345679 0 99.9997531 0 99.9997531 100 0.00012345679 100"></polygon>
    </defs>
    <g id="HOMEPAGE" stroke="none" stroke-width="1" fill="none" fill-rule="evenodd" opacity="0.4">
        <g id="Teacher-module_homepage_desktop" transform="translate(-1025.000000, -2789.000000)">
            <g id="Group-71" transform="translate(1025.000000, 2789.000000)">
                <mask id="mask-2" fill="white">
                    <use xlink:href="#path-1"></use>
                </mask>
                <g id="Clip-2"></g>
                <path d="M6.88888889,80.9296296 L49.7185185,80.9296296 L49.7185185,12.2691358 L6.88888889,12.2691358 L6.88888889,80.9296296 Z M50.3358025,82.1641975 L6.27160494,82.1641975 C5.9308642,82.1641975 5.65432099,81.8876543 5.65432099,81.5469136 L5.65432099,11.6506173 C5.65432099,11.3098765 5.9308642,11.0333333 6.27160494,11.0333333 L50.3358025,11.0333333 C50.6777778,11.0333333 50.9530864,11.3098765 50.9530864,11.6506173 L50.9530864,81.5469136 C50.9530864,81.8876543 50.6777778,82.1641975 50.3358025,82.1641975 Z" id="Fill-1" fill="#FFFFFF" mask="url(#mask-2)"></path>
                <path d="M50.9530864,80.9296296 L93.782716,80.9296296 L93.782716,12.2691358 L50.9530864,12.2691358 L50.9530864,80.9296296 Z M94.4012346,82.1641975 L50.3358025,82.1641975 C49.9950617,82.1641975 49.7185185,81.8876543 49.7185185,81.5469136 L49.7185185,11.6506173 C49.7185185,11.3098765 49.9950617,11.0333333 50.3358025,11.0333333 L94.4012346,11.0333333 C94.7419753,11.0333333 95.0185185,11.3098765 95.0185185,11.6506173 L95.0185185,81.5469136 C95.0185185,81.8876543 94.7419753,82.1641975 94.4012346,82.1641975 Z" id="Fill-3" fill="#FFFFFF" mask="url(#mask-2)"></path>
                <polygon id="Fill-4" fill="#FFFFFF" mask="url(#mask-2)" points="6.2717284 16.2097531 3.12975309 16.2097531 3.12975309 84.6887654 45.7779012 84.6887654 89.8420988 84.6887654 89.8420988 81.5467901 6.2717284 81.5467901"></polygon>
                <path d="M3.74716049,84.0712346 L89.2249383,84.0712346 L89.2249383,82.1638272 L6.27185185,82.1638272 C5.93111111,82.1638272 5.6545679,81.887284 5.6545679,81.5465432 L5.6545679,16.8267901 L3.74716049,16.8267901 L3.74716049,84.0712346 Z M89.8422222,85.3058025 L3.12987654,85.3058025 C2.7891358,85.3058025 2.51259259,85.0292593 2.51259259,84.6885185 L2.51259259,16.2095062 C2.51259259,15.8687654 2.7891358,15.5922222 3.12987654,15.5922222 L6.27185185,15.5922222 C6.61259259,15.5922222 6.8891358,15.8687654 6.8891358,16.2095062 L6.8891358,80.9292593 L89.8422222,80.9292593 C90.1841975,80.9292593 90.4595062,81.2058025 90.4595062,81.5465432 L90.4595062,84.6885185 C90.4595062,85.0292593 90.1841975,85.3058025 89.8422222,85.3058025 Z" id="Fill-5" fill="#FFFFFF" mask="url(#mask-2)"></path>
                <path d="M42.7385185,27.4630864 L38.6237037,27.4630864 C38.282963,27.4630864 38.0064198,27.1865432 38.0064198,26.8458025 C38.0064198,26.5050617 38.282963,26.2285185 38.6237037,26.2285185 L42.7385185,26.2285185 C43.0792593,26.2285185 43.3558025,26.5050617 43.3558025,26.8458025 C43.3558025,27.1865432 43.0792593,27.4630864 42.7385185,27.4630864" id="Fill-6" fill="#FFFFFF" mask="url(#mask-2)"></path>
                <path d="M35.5841975,27.4630864 L33.3051852,27.4630864 C32.9644444,27.4630864 32.6879012,27.1865432 32.6879012,26.8458025 C32.6879012,26.5050617 32.9644444,26.2285185 33.3051852,26.2285185 L35.5841975,26.2285185 C35.9249383,26.2285185 36.2014815,26.5050617 36.2014815,26.8458025 C36.2014815,27.1865432 35.9249383,27.4630864 35.5841975,27.4630864" id="Fill-7" fill="#FFFFFF" mask="url(#mask-2)"></path>
                <path d="M30.2661728,27.4630864 L29.5069136,27.4630864 C29.1649383,27.4630864 28.8896296,27.1865432 28.8896296,26.8458025 C28.8896296,26.5050617 29.1649383,26.2285185 29.5069136,26.2285185 L30.2661728,26.2285185 C30.6069136,26.2285185 30.8834568,26.5050617 30.8834568,26.8458025 C30.8834568,27.1865432 30.6069136,27.4630864 30.2661728,27.4630864" id="Fill-8" fill="#FFFFFF" mask="url(#mask-2)"></path>
                <path d="M26.4685185,27.4630864 L18.0475309,27.4630864 C17.7055556,27.4630864 17.4302469,27.1865432 17.4302469,26.8458025 C17.4302469,26.5050617 17.7055556,26.2285185 18.0475309,26.2285185 L26.4685185,26.2285185 C26.8092593,26.2285185 27.0858025,26.5050617 27.0858025,26.8458025 C27.0858025,27.1865432 26.8092593,27.4630864 26.4685185,27.4630864" id="Fill-9" fill="#FFFFFF" mask="url(#mask-2)"></path>
                <path d="M15.0088889,27.4630864 L13.8693827,27.4630864 C13.528642,27.4630864 13.2520988,27.1865432 13.2520988,26.8458025 C13.2520988,26.5050617 13.528642,26.2285185 13.8693827,26.2285185 L15.0088889,26.2285185 C15.3496296,26.2285185 15.6261728,26.5050617 15.6261728,26.8458025 C15.6261728,27.1865432 15.3496296,27.4630864 15.0088889,27.4630864" id="Fill-10" fill="#FFFFFF" mask="url(#mask-2)"></path>
                <path d="M20.4535802,32.0216049 L13.8696296,32.0216049 C13.5288889,32.0216049 13.2523457,31.7450617 13.2523457,31.404321 C13.2523457,31.0635802 13.5288889,30.787037 13.8696296,30.787037 L20.4535802,30.787037 C20.794321,30.787037 21.0708642,31.0635802 21.0708642,31.404321 C21.0708642,31.7450617 20.794321,32.0216049 20.4535802,32.0216049" id="Fill-11" fill="#FFFFFF" mask="url(#mask-2)"></path>
                <path d="M26.4685185,32.0216049 L23.4919753,32.0216049 C23.15,32.0216049 22.8746914,31.7450617 22.8746914,31.404321 C22.8746914,31.0635802 23.15,30.787037 23.4919753,30.787037 L26.4685185,30.787037 C26.8092593,30.787037 27.0858025,31.0635802 27.0858025,31.404321 C27.0858025,31.7450617 26.8092593,32.0216049 26.4685185,32.0216049" id="Fill-12" fill="#FFFFFF" mask="url(#mask-2)"></path>
                <path d="M29.5054321,32.0216049 C29.3449383,32.0216049 29.1967901,31.9598765 29.0733333,31.8487654 C28.9511111,31.712963 28.8881481,31.5648148 28.8881481,31.404321 C28.8881481,31.2438272 28.9511111,31.0833333 29.0733333,30.9722222 C29.3091358,30.7376543 29.7153086,30.7376543 29.9498765,30.9722222 C30.0609877,31.0833333 30.122716,31.2438272 30.122716,31.404321 C30.122716,31.5648148 30.0609877,31.712963 29.9498765,31.8376543 C29.8140741,31.9598765 29.6671605,32.0216049 29.5054321,32.0216049" id="Fill-13" fill="#FFFFFF" mask="url(#mask-2)"></path>
                <path d="M38.6237037,32.0216049 L32.5459259,32.0216049 C32.2051852,32.0216049 31.928642,31.7450617 31.928642,31.404321 C31.928642,31.0635802 32.2051852,30.787037 32.5459259,30.787037 L38.6237037,30.787037 C38.9644444,30.787037 39.2409877,31.0635802 39.2409877,31.404321 C39.2409877,31.7450617 38.9644444,32.0216049 38.6237037,32.0216049" id="Fill-14" fill="#FFFFFF" mask="url(#mask-2)"></path>
                <path d="M42.7385185,32.0216049 L41.6632099,32.0216049 C41.3224691,32.0216049 41.0459259,31.7450617 41.0459259,31.404321 C41.0459259,31.0635802 41.3224691,30.787037 41.6632099,30.787037 L42.7385185,30.787037 C43.0792593,30.787037 43.3558025,31.0635802 43.3558025,31.404321 C43.3558025,31.7450617 43.0792593,32.0216049 42.7385185,32.0216049" id="Fill-15" fill="#FFFFFF" mask="url(#mask-2)"></path>
                <path d="M15.3404938,36.5801235 L13.8701235,36.5801235 C13.5281481,36.5801235 13.2528395,36.3035802 13.2528395,35.9628395 C13.2528395,35.6220988 13.5281481,35.3455556 13.8701235,35.3455556 L15.3404938,35.3455556 C15.6812346,35.3455556 15.9577778,35.6220988 15.9577778,35.9628395 C15.9577778,36.3035802 15.6812346,36.5801235 15.3404938,36.5801235" id="Fill-16" fill="#FFFFFF" mask="url(#mask-2)"></path>
                <path d="M24.1259259,36.5801235 L18.3802469,36.5801235 C18.0382716,36.5801235 17.762963,36.3035802 17.762963,35.9628395 C17.762963,35.6220988 18.0382716,35.3455556 18.3802469,35.3455556 L24.1259259,35.3455556 C24.4666667,35.3455556 24.7432099,35.6220988 24.7432099,35.9628395 C24.7432099,36.3035802 24.4666667,36.5801235 24.1259259,36.5801235" id="Fill-17" fill="#FFFFFF" mask="url(#mask-2)"></path>
                <path d="M33.9541975,36.5801235 L27.1640741,36.5801235 C26.8233333,36.5801235 26.5467901,36.3035802 26.5467901,35.9628395 C26.5467901,35.6220988 26.8233333,35.3455556 27.1640741,35.3455556 L33.9541975,35.3455556 C34.2949383,35.3455556 34.5714815,35.6220988 34.5714815,35.9628395 C34.5714815,36.3035802 34.2949383,36.5801235 33.9541975,36.5801235" id="Fill-18" fill="#FFFFFF" mask="url(#mask-2)"></path>
                <path d="M36.9876543,36.5776543 C36.8271605,36.5776543 36.6666667,36.5159259 36.554321,36.3924691 C36.4444444,36.281358 36.3703704,36.1208642 36.3703704,35.9603704 C36.3703704,35.7998765 36.4444444,35.6258025 36.5679012,35.5159259 C36.7530864,35.3060494 37.1975309,35.2937037 37.4308642,35.527037 C37.5432099,35.6393827 37.617284,35.7998765 37.617284,35.9603704 C37.617284,36.1208642 37.5432099,36.2690123 37.4308642,36.3924691 C37.308642,36.5159259 37.1481481,36.5776543 36.9876543,36.5776543" id="Fill-19" fill="#FFFFFF" mask="url(#mask-2)"></path>
                <path d="M42.7385185,36.5801235 L40.0323457,36.5801235 C39.6903704,36.5801235 39.4150617,36.3035802 39.4150617,35.9628395 C39.4150617,35.6220988 39.6903704,35.3455556 40.0323457,35.3455556 L42.7385185,35.3455556 C43.0792593,35.3455556 43.3558025,35.6220988 43.3558025,35.9628395 C43.3558025,36.3035802 43.0792593,36.5801235 42.7385185,36.5801235" id="Fill-20" fill="#FFFFFF" mask="url(#mask-2)"></path>
                <path d="M18.9971605,41.138642 L13.87,41.138642 C13.5280247,41.138642 13.252716,40.8620988 13.252716,40.521358 C13.252716,40.1806173 13.5280247,39.9040741 13.87,39.9040741 L18.9971605,39.9040741 C19.3379012,39.9040741 19.6144444,40.1806173 19.6144444,40.521358 C19.6144444,40.8620988 19.3379012,41.138642 18.9971605,41.138642" id="Fill-21" fill="#FFFFFF" mask="url(#mask-2)"></path>
                <path d="M22.891358,41.138642 L22.037037,41.138642 C21.6950617,41.138642 21.4197531,40.8620988 21.4197531,40.521358 C21.4197531,40.1806173 21.6950617,39.9040741 22.037037,39.9040741 L22.891358,39.9040741 C23.2320988,39.9040741 23.508642,40.1806173 23.508642,40.521358 C23.508642,40.8620988 23.2320988,41.138642 22.891358,41.138642" id="Fill-22" fill="#FFFFFF" mask="url(#mask-2)"></path>
                <path d="M31.3898765,41.138642 L25.9293827,41.138642 C25.588642,41.138642 25.3120988,40.8620988 25.3120988,40.521358 C25.3120988,40.1806173 25.588642,39.9040741 25.9293827,39.9040741 L31.3898765,39.9040741 C31.7306173,39.9040741 32.0071605,40.1806173 32.0071605,40.521358 C32.0071605,40.8620988 31.7306173,41.138642 31.3898765,41.138642" id="Fill-23" fill="#FFFFFF" mask="url(#mask-2)"></path>
                <path d="M39.7002469,41.138642 L34.428642,41.138642 C34.0879012,41.138642 33.811358,40.8620988 33.811358,40.521358 C33.811358,40.1806173 34.0879012,39.9040741 34.428642,39.9040741 L39.7002469,39.9040741 C40.0409877,39.9040741 40.3175309,40.1806173 40.3175309,40.521358 C40.3175309,40.8620988 40.0409877,41.138642 39.7002469,41.138642" id="Fill-24" fill="#FFFFFF" mask="url(#mask-2)"></path>
                <path d="M42.7408642,41.1325926 C42.5803704,41.1325926 42.418642,41.0708642 42.3075309,40.9597531 C42.1853086,40.8375309 42.1235802,40.677037 42.1235802,40.5153086 C42.1235802,40.3548148 42.1853086,40.194321 42.2964198,40.0832099 C42.5309877,39.848642 42.9383951,39.848642 43.172963,40.0832099 C43.2828395,40.194321 43.3581481,40.3548148 43.3581481,40.5153086 C43.3581481,40.677037 43.2951852,40.8375309 43.1840741,40.948642 C43.0495062,41.0708642 42.901358,41.1325926 42.7408642,41.1325926" id="Fill-25" fill="#FFFFFF" mask="url(#mask-2)"></path>
                <path d="M17.9844444,45.697037 L13.8696296,45.697037 C13.5288889,45.697037 13.2523457,45.4204938 13.2523457,45.0797531 C13.2523457,44.7390123 13.5288889,44.4624691 13.8696296,44.4624691 L17.9844444,44.4624691 C18.3251852,44.4624691 18.6017284,44.7390123 18.6017284,45.0797531 C18.6017284,45.4204938 18.3251852,45.697037 17.9844444,45.697037" id="Fill-26" fill="#FFFFFF" mask="url(#mask-2)"></path>
                <path d="M23.3024691,45.697037 L21.0222222,45.697037 C20.6814815,45.697037 20.4049383,45.4204938 20.4049383,45.0797531 C20.4049383,44.7390123 20.6814815,44.4624691 21.0222222,44.4624691 L23.3024691,44.4624691 C23.6432099,44.4624691 23.9197531,44.7390123 23.9197531,45.0797531 C23.9197531,45.4204938 23.6432099,45.697037 23.3024691,45.697037" id="Fill-27" fill="#FFFFFF" mask="url(#mask-2)"></path>
                <path d="M27.101358,45.697037 L26.3420988,45.697037 C26.0001235,45.697037 25.7248148,45.4204938 25.7248148,45.0797531 C25.7248148,44.7390123 26.0001235,44.4624691 26.3420988,44.4624691 L27.101358,44.4624691 C27.4420988,44.4624691 27.718642,44.7390123 27.718642,45.0797531 C27.718642,45.4204938 27.4420988,45.697037 27.101358,45.697037" id="Fill-28" fill="#FFFFFF" mask="url(#mask-2)"></path>
                <path d="M38.5609877,45.697037 L30.14,45.697037 C29.7980247,45.697037 29.522716,45.4204938 29.522716,45.0797531 C29.522716,44.7390123 29.7980247,44.4624691 30.14,44.4624691 L38.5609877,44.4624691 C38.9017284,44.4624691 39.1782716,44.7390123 39.1782716,45.0797531 C39.1782716,45.4204938 38.9017284,45.697037 38.5609877,45.697037" id="Fill-29" fill="#FFFFFF" mask="url(#mask-2)"></path>
                <path d="M42.7385185,45.697037 L41.5990123,45.697037 C41.2582716,45.697037 40.9817284,45.4204938 40.9817284,45.0797531 C40.9817284,44.7390123 41.2582716,44.4624691 41.5990123,44.4624691 L42.7385185,44.4624691 C43.0792593,44.4624691 43.3558025,44.7390123 43.3558025,45.0797531 C43.3558025,45.4204938 43.0792593,45.697037 42.7385185,45.697037" id="Fill-30" fill="#FFFFFF" mask="url(#mask-2)"></path>
                <path d="M42.7385185,50.2544444 L36.1545679,50.2544444 C35.8138272,50.2544444 35.537284,49.9779012 35.537284,49.6371605 C35.537284,49.2964198 35.8138272,49.0198765 36.1545679,49.0198765 L42.7385185,49.0198765 C43.0792593,49.0198765 43.3558025,49.2964198 43.3558025,49.6371605 C43.3558025,49.9779012 43.0792593,50.2544444 42.7385185,50.2544444" id="Fill-31" fill="#FFFFFF" mask="url(#mask-2)"></path>
                <path d="M33.1150617,50.2544444 L30.1397531,50.2544444 C29.7977778,50.2544444 29.5224691,49.9779012 29.5224691,49.6371605 C29.5224691,49.2964198 29.7977778,49.0198765 30.1397531,49.0198765 L33.1150617,49.0198765 C33.4558025,49.0198765 33.7323457,49.2964198 33.7323457,49.6371605 C33.7323457,49.9779012 33.4558025,50.2544444 33.1150617,50.2544444" id="Fill-32" fill="#FFFFFF" mask="url(#mask-2)"></path>
                <path d="M27.0990123,50.2567901 C26.937284,50.2567901 26.7767901,50.1814815 26.665679,50.0716049 C26.5558025,49.9728395 26.4817284,49.8 26.4817284,49.6395062 C26.4817284,49.4790123 26.5434568,49.3185185 26.665679,49.1950617 C26.8891358,48.9728395 27.2953086,48.9728395 27.5311111,49.1950617 C27.6533333,49.3185185 27.7162963,49.4790123 27.7162963,49.6395062 C27.7162963,49.8 27.6533333,49.9604938 27.5311111,50.0716049 C27.42,50.1950617 27.2595062,50.2567901 27.0990123,50.2567901" id="Fill-33" fill="#FFFFFF" mask="url(#mask-2)"></path>
                <path d="M24.0619753,50.2544444 L17.9841975,50.2544444 C17.6434568,50.2544444 17.3669136,49.9779012 17.3669136,49.6371605 C17.3669136,49.2964198 17.6434568,49.0198765 17.9841975,49.0198765 L24.0619753,49.0198765 C24.402716,49.0198765 24.6792593,49.2964198 24.6792593,49.6371605 C24.6792593,49.9779012 24.402716,50.2544444 24.0619753,50.2544444" id="Fill-34" fill="#FFFFFF" mask="url(#mask-2)"></path>
                <path d="M14.9450617,50.2544444 L13.8697531,50.2544444 C13.5290123,50.2544444 13.2524691,49.9779012 13.2524691,49.6371605 C13.2524691,49.2964198 13.5290123,49.0198765 13.8697531,49.0198765 L14.9450617,49.0198765 C15.2858025,49.0198765 15.5623457,49.2964198 15.5623457,49.6371605 C15.5623457,49.9779012 15.2858025,50.2544444 14.9450617,50.2544444" id="Fill-35" fill="#FFFFFF" mask="url(#mask-2)"></path>
                <path d="M42.7385185,68.4883951 L38.6237037,68.4883951 C38.282963,68.4883951 38.0064198,68.2118519 38.0064198,67.8711111 C38.0064198,67.5303704 38.282963,67.2538272 38.6237037,67.2538272 L42.7385185,67.2538272 C43.0792593,67.2538272 43.3558025,67.5303704 43.3558025,67.8711111 C43.3558025,68.2118519 43.0792593,68.4883951 42.7385185,68.4883951" id="Fill-36" fill="#FFFFFF" mask="url(#mask-2)"></path>
                <path d="M35.5841975,68.4883951 L33.3051852,68.4883951 C32.9644444,68.4883951 32.6879012,68.2118519 32.6879012,67.8711111 C32.6879012,67.5303704 32.9644444,67.2538272 33.3051852,67.2538272 L35.5841975,67.2538272 C35.9249383,67.2538272 36.2014815,67.5303704 36.2014815,67.8711111 C36.2014815,68.2118519 35.9249383,68.4883951 35.5841975,68.4883951" id="Fill-37" fill="#FFFFFF" mask="url(#mask-2)"></path>
                <path d="M30.2661728,68.4883951 L29.5069136,68.4883951 C29.1649383,68.4883951 28.8896296,68.2118519 28.8896296,67.8711111 C28.8896296,67.5303704 29.1649383,67.2538272 29.5069136,67.2538272 L30.2661728,67.2538272 C30.6069136,67.2538272 30.8834568,67.5303704 30.8834568,67.8711111 C30.8834568,68.2118519 30.6069136,68.4883951 30.2661728,68.4883951" id="Fill-38" fill="#FFFFFF" mask="url(#mask-2)"></path>
                <path d="M26.4685185,68.4883951 L18.0475309,68.4883951 C17.7055556,68.4883951 17.4302469,68.2118519 17.4302469,67.8711111 C17.4302469,67.5303704 17.7055556,67.2538272 18.0475309,67.2538272 L26.4685185,67.2538272 C26.8092593,67.2538272 27.0858025,67.5303704 27.0858025,67.8711111 C27.0858025,68.2118519 26.8092593,68.4883951 26.4685185,68.4883951" id="Fill-39" fill="#FFFFFF" mask="url(#mask-2)"></path>
                <path d="M15.0088889,68.4883951 L13.8693827,68.4883951 C13.528642,68.4883951 13.2520988,68.2118519 13.2520988,67.8711111 C13.2520988,67.5303704 13.528642,67.2538272 13.8693827,67.2538272 L15.0088889,67.2538272 C15.3496296,67.2538272 15.6261728,67.5303704 15.6261728,67.8711111 C15.6261728,68.2118519 15.3496296,68.4883951 15.0088889,68.4883951" id="Fill-40" fill="#FFFFFF" mask="url(#mask-2)"></path>
                <path d="M20.4535802,63.9298765 L13.8696296,63.9298765 C13.5288889,63.9298765 13.2523457,63.6533333 13.2523457,63.3125926 C13.2523457,62.9718519 13.5288889,62.6953086 13.8696296,62.6953086 L20.4535802,62.6953086 C20.794321,62.6953086 21.0708642,62.9718519 21.0708642,63.3125926 C21.0708642,63.6533333 20.794321,63.9298765 20.4535802,63.9298765" id="Fill-41" fill="#FFFFFF" mask="url(#mask-2)"></path>
                <path d="M26.4685185,63.9298765 L23.4919753,63.9298765 C23.15,63.9298765 22.8746914,63.6533333 22.8746914,63.3125926 C22.8746914,62.9718519 23.15,62.6953086 23.4919753,62.6953086 L26.4685185,62.6953086 C26.8092593,62.6953086 27.0858025,62.9718519 27.0858025,63.3125926 C27.0858025,63.6533333 26.8092593,63.9298765 26.4685185,63.9298765" id="Fill-42" fill="#FFFFFF" mask="url(#mask-2)"></path>
                <path d="M29.5054321,63.9359259 C29.3449383,63.9359259 29.1967901,63.8741975 29.0733333,63.7507407 C28.9511111,63.6396296 28.8881481,63.4791358 28.8881481,63.318642 C28.8881481,63.1445679 28.9511111,62.9964198 29.0622222,62.8741975 C29.3214815,62.6396296 29.7153086,62.6519753 29.9387654,62.8741975 C30.0609877,62.9964198 30.122716,63.1445679 30.122716,63.318642 C30.122716,63.4791358 30.0609877,63.6396296 29.9387654,63.7507407 C29.8276543,63.8606173 29.6671605,63.9359259 29.5054321,63.9359259" id="Fill-43" fill="#FFFFFF" mask="url(#mask-2)"></path>
                <path d="M38.6237037,63.9298765 L32.5459259,63.9298765 C32.2051852,63.9298765 31.928642,63.6533333 31.928642,63.3125926 C31.928642,62.9718519 32.2051852,62.6953086 32.5459259,62.6953086 L38.6237037,62.6953086 C38.9644444,62.6953086 39.2409877,62.9718519 39.2409877,63.3125926 C39.2409877,63.6533333 38.9644444,63.9298765 38.6237037,63.9298765" id="Fill-44" fill="#FFFFFF" mask="url(#mask-2)"></path>
                <path d="M42.7385185,63.9298765 L41.6632099,63.9298765 C41.3224691,63.9298765 41.0459259,63.6533333 41.0459259,63.3125926 C41.0459259,62.9718519 41.3224691,62.6953086 41.6632099,62.6953086 L42.7385185,62.6953086 C43.0792593,62.6953086 43.3558025,62.9718519 43.3558025,63.3125926 C43.3558025,63.6533333 43.0792593,63.9298765 42.7385185,63.9298765" id="Fill-45" fill="#FFFFFF" mask="url(#mask-2)"></path>
                <path d="M42.7385185,54.8128395 L41.2669136,54.8128395 C40.9249383,54.8128395 40.6496296,54.5362963 40.6496296,54.1955556 C40.6496296,53.8548148 40.9249383,53.5782716 41.2669136,53.5782716 L42.7385185,53.5782716 C43.0792593,53.5782716 43.3558025,53.8548148 43.3558025,54.1955556 C43.3558025,54.5362963 43.0792593,54.8128395 42.7385185,54.8128395" id="Fill-46" fill="#FFFFFF" mask="url(#mask-2)"></path>
                <path d="M38.2281481,54.8128395 L32.4824691,54.8128395 C32.1404938,54.8128395 31.8651852,54.5362963 31.8651852,54.1955556 C31.8651852,53.8548148 32.1404938,53.5782716 32.4824691,53.5782716 L38.2281481,53.5782716 C38.5688889,53.5782716 38.8454321,53.8548148 38.8454321,54.1955556 C38.8454321,54.5362963 38.5688889,54.8128395 38.2281481,54.8128395" id="Fill-47" fill="#FFFFFF" mask="url(#mask-2)"></path>
                <path d="M29.4439506,54.8128395 L22.6538272,54.8128395 C22.3130864,54.8128395 22.0365432,54.5362963 22.0365432,54.1955556 C22.0365432,53.8548148 22.3130864,53.5782716 22.6538272,53.5782716 L29.4439506,53.5782716 C29.7846914,53.5782716 30.0612346,53.8548148 30.0612346,54.1955556 C30.0612346,54.5362963 29.7846914,54.8128395 29.4439506,54.8128395" id="Fill-48" fill="#FFFFFF" mask="url(#mask-2)"></path>
                <path d="M19.6167901,54.8117284 C19.4562963,54.8117284 19.2958025,54.75 19.1846914,54.6388889 C19.0612346,54.5166667 18.9995062,54.3549383 18.9995062,54.1944444 C18.9995062,54.0339506 19.0612346,53.8734568 19.1735802,53.7512346 C19.4192593,53.5277778 19.8266667,53.5277778 20.0501235,53.7623457 C20.16,53.8611111 20.2340741,54.0216049 20.2340741,54.1944444 C20.2340741,54.3549383 20.16,54.5166667 20.0501235,54.6388889 C19.9377778,54.75 19.777284,54.8117284 19.6167901,54.8117284" id="Fill-49" fill="#FFFFFF" mask="url(#mask-2)"></path>
                <path d="M16.5750617,54.8128395 L13.8701235,54.8128395 C13.5281481,54.8128395 13.2528395,54.5362963 13.2528395,54.1955556 C13.2528395,53.8548148 13.5281481,53.5782716 13.8701235,53.5782716 L16.5750617,53.5782716 C16.9158025,53.5782716 17.1923457,53.8548148 17.1923457,54.1955556 C17.1923457,54.5362963 16.9158025,54.8128395 16.5750617,54.8128395" id="Fill-50" fill="#FFFFFF" mask="url(#mask-2)"></path>
                <path d="M42.7385185,59.371358 L37.611358,59.371358 C37.2693827,59.371358 36.9940741,59.0948148 36.9940741,58.7540741 C36.9940741,58.4133333 37.2693827,58.1367901 37.611358,58.1367901 L42.7385185,58.1367901 C43.0792593,58.1367901 43.3558025,58.4133333 43.3558025,58.7540741 C43.3558025,59.0948148 43.0792593,59.371358 42.7385185,59.371358" id="Fill-51" fill="#FFFFFF" mask="url(#mask-2)"></path>
                <path d="M34.5714815,59.371358 L33.7171605,59.371358 C33.3751852,59.371358 33.0998765,59.0948148 33.0998765,58.7540741 C33.0998765,58.4133333 33.3751852,58.1367901 33.7171605,58.1367901 L34.5714815,58.1367901 C34.9122222,58.1367901 35.1887654,58.4133333 35.1887654,58.7540741 C35.1887654,59.0948148 34.9122222,59.371358 34.5714815,59.371358" id="Fill-52" fill="#FFFFFF" mask="url(#mask-2)"></path>
                <path d="M30.6785185,59.371358 L25.2167901,59.371358 C24.8760494,59.371358 24.5995062,59.0948148 24.5995062,58.7540741 C24.5995062,58.4133333 24.8760494,58.1367901 25.2167901,58.1367901 L30.6785185,58.1367901 C31.0192593,58.1367901 31.2958025,58.4133333 31.2958025,58.7540741 C31.2958025,59.0948148 31.0192593,59.371358 30.6785185,59.371358" id="Fill-53" fill="#FFFFFF" mask="url(#mask-2)"></path>
                <path d="M22.1787654,59.371358 L16.9071605,59.371358 C16.5664198,59.371358 16.2898765,59.0948148 16.2898765,58.7540741 C16.2898765,58.4133333 16.5664198,58.1367901 16.9071605,58.1367901 L22.1787654,58.1367901 C22.5195062,58.1367901 22.7960494,58.4133333 22.7960494,58.7540741 C22.7960494,59.0948148 22.5195062,59.371358 22.1787654,59.371358" id="Fill-54" fill="#FFFFFF" mask="url(#mask-2)"></path>
                <path d="M13.8635802,59.3677778 C13.7030864,59.3677778 13.5549383,59.3060494 13.4314815,59.1949383 C13.3092593,59.0714815 13.2462963,58.9109877 13.2462963,58.7504938 C13.2462963,58.59 13.3216049,58.4295062 13.4314815,58.3183951 C13.6660494,58.0838272 14.087037,58.0838272 14.3080247,58.3183951 C14.4191358,58.4418519 14.4808642,58.59 14.4808642,58.7504938 C14.4808642,58.9109877 14.4191358,59.0591358 14.3080247,59.1825926 C14.1858025,59.3060494 14.0376543,59.3677778 13.8635802,59.3677778" id="Fill-55" fill="#FFFFFF" mask="url(#mask-2)"></path>
                <path d="M60.9603704,60.3479012 L64.3122222,62.4417284 L81.9838272,34.1602469 L78.6319753,32.0664198 L60.9603704,60.3479012 Z M64.5085185,63.9108642 C64.3961728,63.9108642 64.2825926,63.88 64.181358,63.817037 L59.7825926,61.0676543 C59.644321,60.9812346 59.5455556,60.842963 59.507284,60.6824691 C59.4714815,60.5244444 59.498642,60.3565432 59.5862963,60.2182716 L77.9122222,30.888642 C78.0937037,30.597284 78.4764198,30.5120988 78.7628395,30.6923457 L83.1616049,33.4404938 C83.3011111,33.5269136 83.3998765,33.6664198 83.4369136,33.825679 C83.472716,33.9849383 83.4455556,34.1516049 83.3591358,34.2911111 L65.0319753,63.6195062 C64.9146914,63.8083951 64.7134568,63.9108642 64.5085185,63.9108642 Z" id="Fill-56" fill="#FFFFFF" mask="url(#mask-2)"></path>
                <polygon id="Fill-57" fill="#FFFFFF" mask="url(#mask-2)" points="77.4051852 32.864321 60.1088889 60.5445679 62.3088889 61.918642 79.6051852 34.2383951"></polygon>
                <path d="M60.5022222,61.5174074 L59.1318519,67.0038272 L63.4602469,63.3667901 L60.5022222,61.5174074 Z M58.0701235,69.318642 C57.9565432,69.318642 57.8441975,69.2877778 57.7441975,69.2248148 C57.5158025,69.0840741 57.4059259,68.8112346 57.471358,68.5519753 L59.5096296,60.3951852 C59.5577778,60.2038272 59.6948148,60.047037 59.8775309,59.9717284 C60.062716,59.8976543 60.2701235,59.9161728 60.4355556,60.0211111 L64.8355556,62.7704938 C65.0034568,62.8754321 65.1096296,63.0532099 65.1244444,63.2495062 C65.1380247,63.447037 65.0565432,63.6396296 64.9046914,63.7655556 L58.4676543,69.1741975 C58.3540741,69.2692593 58.2133333,69.318642 58.0701235,69.318642 Z" id="Fill-58" fill="#FFFFFF" mask="url(#mask-2)"></path>
                <polygon id="Fill-59" fill="#FFFFFF" mask="url(#mask-2)" points="58.0704938 68.7017284 59.0902469 64.622716 61.2890123 65.9980247"></polygon>
                <path d="M83.0077778,34.3062963 C82.8954321,34.3062963 82.7818519,34.2766667 82.6806173,34.2124691 C82.3917284,34.0309877 82.3040741,33.6507407 82.484321,33.3618519 L85.7497531,28.1371605 C86.0287654,27.6902469 86.1176543,27.1593827 85.9991358,26.6445679 C85.8793827,26.1309877 85.567037,25.692716 85.1201235,25.4137037 C84.6732099,25.1334568 84.1460494,25.0420988 83.6275309,25.164321 C83.1139506,25.2828395 82.675679,25.5939506 82.3966667,26.0420988 L79.1312346,31.2667901 C78.9522222,31.5581481 78.5695062,31.6458025 78.2818519,31.4630864 C77.992963,31.2828395 77.9040741,30.9025926 78.0855556,30.6137037 L81.3497531,25.3877778 C81.8028395,24.6618519 82.5151852,24.1532099 83.3497531,23.9606173 C84.1892593,23.7717284 85.047284,23.9124691 85.7744444,24.3667901 C86.5016049,24.8198765 87.0077778,25.5322222 87.2003704,26.3667901 C87.3941975,27.2025926 87.2509877,28.0630864 86.7954321,28.7902469 L83.5312346,34.0161728 C83.4139506,34.2038272 83.212716,34.3062963 83.0077778,34.3062963" id="Fill-60" fill="#FFFFFF" mask="url(#mask-2)"></path>
                <path d="M85.5046914,31.5333333 C85.3923457,31.5333333 85.2787654,31.5037037 85.1775309,31.4395062 L79.6787654,28.0037037 C79.3898765,27.8222222 79.3022222,27.4419753 79.4824691,27.1530864 C79.6651852,26.862963 80.0479012,26.7765432 80.3330864,26.9567901 L85.8318519,30.3925926 C86.1207407,30.5740741 86.2083951,30.954321 86.0281481,31.2432099 C85.9108642,31.4308642 85.7096296,31.5333333 85.5046914,31.5333333" id="Fill-61" fill="#FFFFFF" mask="url(#mask-2)"></path>
                <path d="M83.2603704,25.988642 C82.6653086,25.6158025 81.8801235,25.797284 81.5085185,26.3935802 L80.5974074,27.8503704 L82.7554321,29.1985185 L83.6653086,27.7417284 C84.0369136,27.1454321 83.8566667,26.3614815 83.2603704,25.988642" id="Fill-62" fill="#FFFFFF" mask="url(#mask-2)"></path>
                <polygon id="Fill-63" fill="#FFFFFF" mask="url(#mask-2)" points="80.6362963 32.5895062 78.4782716 31.241358 79.6165432 29.4203704 81.7745679 30.767284"></polygon>
                <polygon id="Fill-64" fill="#FFFFFF" mask="url(#mask-2)" points="85.2840741 98.0709877 79.7766667 93.6648148 74.2680247 98.0709877 74.2680247 81.5462963 85.2840741 81.5462963"></polygon>
                <path d="M79.7755556,93.0471605 C79.911358,93.0471605 80.0483951,93.0916049 80.1607407,93.1817284 L84.6669136,96.7866667 L84.6669136,82.1644444 L74.8854321,82.1644444 L74.8854321,96.7866667 L79.3903704,93.1817284 C79.502716,93.0916049 79.6397531,93.0471605 79.7755556,93.0471605 M85.2841975,98.6879012 C85.1471605,98.6879012 85.0101235,98.6422222 84.8977778,98.5533333 L79.7755556,94.4558025 L74.6545679,98.5533333 C74.4681481,98.7002469 74.2150617,98.7298765 74.0002469,98.6274074 C73.7866667,98.5249383 73.6508642,98.3088889 73.6508642,98.0706173 L73.6508642,81.5471605 C73.6508642,81.2051852 73.9274074,80.9298765 74.2681481,80.9298765 L85.2841975,80.9298765 C85.6249383,80.9298765 85.9014815,81.2051852 85.9014815,81.5471605 L85.9014815,98.0706173 C85.9014815,98.3088889 85.765679,98.5249383 85.5520988,98.6274074 C85.465679,98.6681481 85.374321,98.6879012 85.2841975,98.6879012" id="Fill-65" fill="#FFFFFF" mask="url(#mask-2)"></path>
                <path d="M94.4034568,72.2511111 C94.3120988,72.2511111 94.2207407,72.2301235 94.1318519,72.1881481 C93.825679,72.0387654 93.6997531,71.6683951 93.8491358,71.3622222 C97.1108642,64.6807407 98.7651852,57.494321 98.7651852,50.0004938 C98.7651852,44.477037 97.8503704,39.0585185 96.0441975,33.8967901 C95.9306173,33.5745679 96.1009877,33.222716 96.4232099,33.1103704 C96.7466667,32.994321 97.0960494,33.1671605 97.2083951,33.4893827 C99.0602469,38.7832099 99.9997531,44.3387654 99.9997531,50.0004938 C99.9997531,57.6832099 98.3034568,65.0535802 94.9577778,71.9054321 C94.8503704,72.122716 94.6318519,72.2511111 94.4034568,72.2511111" id="Fill-66" fill="#FFFFFF" mask="url(#mask-2)"></path>
                <path d="M94.4022222,28.9797531 C94.1738272,28.9797531 93.9553086,28.851358 93.8479012,28.6340741 C91.3108642,23.4377778 87.8985185,18.768642 83.7059259,14.7575309 C83.4602469,14.5217284 83.4516049,14.1316049 83.6861728,13.8846914 C83.9232099,13.6402469 84.3133333,13.6291358 84.5590123,13.8661728 C88.8577778,17.9785185 92.3565432,22.7637037 94.9565432,28.0908642 C95.1059259,28.397037 94.98,28.7674074 94.6738272,28.9167901 C94.5849383,28.9587654 94.4935802,28.9797531 94.4022222,28.9797531" id="Fill-67" fill="#FFFFFF" mask="url(#mask-2)"></path>
                <path d="M81.1149383,12.267284 C80.9779012,12.267284 80.8396296,12.2216049 80.7260494,12.1290123 C72.0779012,5.10308642 61.1655556,1.23395062 50.0001235,1.23395062 C38.8655556,1.23395062 27.9779012,5.0845679 19.3408642,12.0759259 C19.0741975,12.2919753 18.6865432,12.2487654 18.472963,11.9845679 C18.2581481,11.7191358 18.2988889,11.3302469 18.564321,11.1154321 C27.4211111,3.94753086 38.5840741,-0.000617283951 50.0001235,-0.000617283951 C61.447037,-0.000617283951 72.6359259,3.96728395 81.5038272,11.1709877 C81.7680247,11.3858025 81.8087654,11.7746914 81.5939506,12.0388889 C81.4717284,12.1895062 81.2951852,12.267284 81.1149383,12.267284" id="Fill-68" fill="#FFFFFF" mask="url(#mask-2)"></path>
                <path d="M4.5754321,70.0207407 C4.33592593,70.0207407 4.10753086,69.8812346 4.00753086,69.6454321 C1.3482716,63.4269136 0.00012345679,56.8182716 0.00012345679,49.9997531 C0.00012345679,43.5775309 1.20135802,37.3244444 3.56925926,31.4145679 C3.69518519,31.0985185 4.05691358,30.9466667 4.37049383,31.071358 C4.68777778,31.1985185 4.8408642,31.5577778 4.7137037,31.8738272 C2.40506173,37.6367901 1.23469136,43.7355556 1.23469136,49.9997531 C1.23469136,56.6503704 2.54950617,63.097284 5.14333333,69.1614815 C5.27666667,69.4750617 5.13098765,69.8380247 4.81740741,69.971358 C4.73962963,70.0046914 4.65567901,70.0207407 4.5754321,70.0207407" id="Fill-69" fill="#FFFFFF" mask="url(#mask-2)"></path>
                <path d="M50,100 C36.1777778,100 22.8432099,94.1975309 13.4135802,84.0802469 C13.182716,83.8308642 13.1950617,83.4407407 13.445679,83.2074074 C13.6950617,82.9765432 14.0851852,82.991358 14.3185185,83.2395062 C23.5135802,93.1061728 36.5185185,98.7654321 50,98.7654321 C58.4061728,98.7654321 66.6925926,96.591358 73.9666667,92.4790123 C74.2617284,92.3123457 74.6395062,92.4135802 74.808642,92.7135802 C74.9753086,93.0098765 74.8716049,93.3876543 74.5740741,93.554321 C67.1148148,97.7703704 58.617284,100 50,100" id="Fill-70" fill="#FFFFFF" mask="url(#mask-2)"></path>
            </g>
        </g>
    </g>
</svg>