<?xml version="1.0" encoding="UTF-8"?>
<svg width="100px" height="100px" viewBox="0 0 100 100" version="1.1" xmlns="http://www.w3.org/2000/svg" xmlns:xlink="http://www.w3.org/1999/xlink">
    <!-- Generator: Sketch 51.3 (57544) - http://www.bohemiancoding.com/sketch -->
    <title>Group 33</title>
    <desc>Created with Sketch.</desc>
    <defs></defs>
    <g id="HOMEPAGE" stroke="none" stroke-width="1" fill="none" fill-rule="evenodd" opacity="0.4">
        <g id="Teacher-module_homepage_desktop" transform="translate(-156.000000, -2841.000000)" fill="#FFFFFF">
            <g id="Group-33" transform="translate(206.000000, 2891.000000) scale(-1, 1) translate(-206.000000, -2891.000000) translate(156.000000, 2841.000000)">
                <path d="M71.0806,53.9785 L58.1176,53.9785 C57.7766,53.9785 57.4996,53.7025 57.4996,53.3615 C57.4996,53.0205 57.7766,52.7445 58.1176,52.7445 L71.0806,52.7445 C71.4216,52.7445 71.6976,53.0205 71.6976,53.3615 C71.6976,53.7025 71.4216,53.9785 71.0806,53.9785" id="Fill-1"></path>
                <path d="M71.0806,68.1191 C71.0036,68.1191 70.9246,68.1051 70.8496,68.0751 C60.2186,63.7691 60.6386,53.4321 60.6446,53.3291 C60.6616,52.9901 60.9036,52.7441 61.2916,52.7451 C61.6316,52.7621 61.8936,53.0531 61.8766,53.3921 C61.8576,53.7821 61.5166,62.9631 71.3116,66.9301 C71.6276,67.0581 71.7806,67.4181 71.6536,67.7331 C71.5556,67.9731 71.3246,68.1191 71.0806,68.1191" id="Fill-3"></path>
                <path d="M58.1177,68.1191 C57.8737,68.1191 57.6427,67.9731 57.5447,67.7331 C57.4167,67.4181 57.5707,67.0581 57.8867,66.9301 C67.6817,62.9631 67.3407,53.7821 67.3217,53.3921 C67.3047,53.0531 67.5657,52.7621 67.9067,52.7451 C68.2817,52.7411 68.5347,52.9901 68.5537,53.3291 C68.5597,53.4321 68.9787,63.7691 58.3487,68.0751 C58.2727,68.1051 58.1947,68.1191 58.1177,68.1191" id="Fill-5"></path>
                <path d="M64.5991,53.9785 C64.2581,53.9785 63.9821,53.7025 63.9821,53.3615 L63.9821,50.2175 C63.9821,49.8765 64.2581,49.6005 64.5991,49.6005 C64.9401,49.6005 65.2161,49.8765 65.2161,50.2175 L65.2161,53.3615 C65.2161,53.7025 64.9401,53.9785 64.5991,53.9785" id="Fill-7"></path>
                <path d="M32.6631,13.5801 C22.0651,13.5801 13.4431,22.2031 13.4431,32.8011 L13.4431,59.6321 L22.1111,52.1711 C22.2241,52.0751 22.3661,52.0211 22.5141,52.0211 L41.2771,52.0211 C51.8751,52.0211 60.4971,43.3991 60.4971,32.8011 C60.4971,22.2031 51.8751,13.5801 41.2771,13.5801 L32.6631,13.5801 Z M12.8261,61.5951 C12.7391,61.5951 12.6511,61.5761 12.5691,61.5381 C12.3491,61.4371 12.2081,61.2191 12.2081,60.9771 L12.2081,32.8011 C12.2081,21.5211 21.3841,12.3461 32.6631,12.3461 L41.2771,12.3461 C52.5561,12.3461 61.7321,21.5211 61.7321,32.8011 C61.7321,44.0801 52.5561,53.2571 41.2771,53.2571 L22.7431,53.2571 L13.2281,61.4451 C13.1141,61.5441 12.9701,61.5951 12.8261,61.5951 Z" id="Fill-9"></path>
                <path d="M42.7495,42.0596 C42.4915,42.0596 42.2495,41.8966 42.1635,41.6376 L36.9695,26.1056 L31.7765,41.6376 C31.6695,41.9626 31.3195,42.1376 30.9955,42.0286 C30.6715,41.9196 30.4975,41.5706 30.6045,41.2476 L36.3835,23.9626 C36.5525,23.4586 37.3865,23.4586 37.5555,23.9626 L43.3355,41.2476 C43.4425,41.5706 43.2695,41.9196 42.9445,42.0286 C42.8805,42.0496 42.8145,42.0596 42.7495,42.0596" id="Fill-11"></path>
                <path d="M40.5986,35.6279 L33.3416,35.6279 C33.0006,35.6279 32.7246,35.3519 32.7246,35.0109 C32.7246,34.6689 33.0006,34.3939 33.3416,34.3939 L40.5986,34.3939 C40.9396,34.3939 41.2156,34.6689 41.2156,35.0109 C41.2156,35.3519 40.9396,35.6279 40.5986,35.6279" id="Fill-13"></path>
                <path d="M87.1743,87.6543 C87.0293,87.6543 86.8863,87.6033 86.7723,87.5053 L77.2573,79.3163 L58.7223,79.3163 C47.4443,79.3163 38.2683,70.1393 38.2683,58.8603 C38.2683,48.0623 46.7023,39.0933 57.4713,38.4423 C57.8453,38.3943 58.1043,38.6813 58.1253,39.0213 C58.1453,39.3613 57.8863,39.6543 57.5463,39.6753 C47.4283,40.2863 39.5023,48.7143 39.5023,58.8603 C39.5023,69.4593 48.1253,78.0823 58.7223,78.0823 L77.4863,78.0823 C77.6343,78.0823 77.7763,78.1343 77.8883,78.2313 L86.5573,85.6913 L86.5573,58.8603 C86.5573,48.2623 77.9343,39.6393 67.3373,39.6393 L60.1173,39.6393 C59.7763,39.6393 59.5003,39.3643 59.5003,39.0223 C59.5003,38.6813 59.7763,38.4053 60.1173,38.4053 L67.3373,38.4053 C78.6153,38.4053 87.7923,47.5813 87.7923,58.8603 L87.7923,87.0373 C87.7923,87.2783 87.6513,87.4983 87.4313,87.5973 C87.3493,87.6363 87.2613,87.6543 87.1743,87.6543" id="Fill-15"></path>
                <path d="M63.9839,39.0234 C61.2489,48.9944 52.1049,56.3424 41.2759,56.3424 L39.0459,56.3424 L39.8839,52.6384 L41.2769,52.6384 C50.0589,52.6384 57.5079,46.9314 60.1189,39.0244 L63.9839,39.0234 Z" id="Fill-17"></path>
                <path d="M22.5142,53.2568 L17.6952,53.2568 C17.3542,53.2568 17.0772,52.9808 17.0772,52.6388 C17.0772,52.2978 17.3542,52.0218 17.6952,52.0218 L22.5142,52.0218 C22.8552,52.0218 23.1312,52.2978 23.1312,52.6388 C23.1312,52.9808 22.8552,53.2568 22.5142,53.2568" id="Fill-19"></path>
                <path d="M81.1006,79.3164 L77.4856,79.3164 C77.1446,79.3164 76.8686,79.0404 76.8686,78.6994 C76.8686,78.3574 77.1446,78.0824 77.4856,78.0824 L81.1006,78.0824 C81.4416,78.0824 81.7176,78.3574 81.7176,78.6994 C81.7176,79.0404 81.4416,79.3164 81.1006,79.3164" id="Fill-21"></path>
                <path d="M77.3198,34.5977 C77.1618,34.5977 77.0038,34.5377 76.8828,34.4167 C76.6418,34.1757 76.6418,33.7857 76.8828,33.5437 C79.7158,30.7107 79.7158,26.0997 76.8828,23.2667 C75.5098,21.8937 73.6858,21.1367 71.7438,21.1367 C69.8028,21.1367 67.9768,21.8937 66.6038,23.2667 C66.3628,23.5077 65.9718,23.5077 65.7308,23.2667 C65.4898,23.0257 65.4898,22.6347 65.7308,22.3937 C67.3368,20.7867 69.4728,19.9027 71.7438,19.9027 C74.0148,19.9027 76.1508,20.7867 77.7558,22.3937 C81.0718,25.7087 81.0718,31.1017 77.7558,34.4167 C77.6358,34.5377 77.4778,34.5977 77.3198,34.5977" id="Fill-23"></path>
                <path d="M77.3184,34.5977 C77.0054,34.5977 76.7374,34.3607 76.7064,34.0417 L76.4734,31.7057 C76.4394,31.3667 76.6864,31.0647 77.0254,31.0307 C77.3814,30.9997 77.6684,31.2437 77.7004,31.5827 L77.8734,33.3057 L79.5944,33.1347 C79.9554,33.1037 80.2374,33.3477 80.2704,33.6867 C80.3044,34.0267 80.0564,34.3277 79.7174,34.3617 L77.3814,34.5947 C77.3594,34.5967 77.3394,34.5977 77.3184,34.5977" id="Fill-25"></path>
                <path d="M32.5752,78.5684 C30.3972,78.5684 28.2202,77.7404 26.5622,76.0834 C23.2472,72.7674 23.2472,67.3734 26.5622,64.0574 C26.8042,63.8164 27.1942,63.8164 27.4352,64.0574 C27.6762,64.2984 27.6762,64.6894 27.4352,64.9304 C24.6012,67.7644 24.6012,72.3754 27.4352,75.2104 C30.2682,78.0434 34.8812,78.0434 37.7152,75.2104 C37.9552,74.9684 38.3462,74.9684 38.5872,75.2104 C38.8282,75.4514 38.8282,75.8414 38.5872,76.0834 C36.9292,77.7404 34.7522,78.5684 32.5752,78.5684" id="Fill-27"></path>
                <path d="M27.2314,67.4482 C26.9194,67.4482 26.6504,67.2102 26.6194,66.8922 L26.4464,65.1692 L24.7244,65.3422 C24.3884,65.3682 24.0824,65.1302 24.0484,64.7892 C24.0134,64.4512 24.2624,64.1482 24.6014,64.1142 L26.9374,63.8812 C27.2654,63.8422 27.5784,64.0942 27.6124,64.4322 L27.8464,66.7692 C27.8814,67.1082 27.6334,67.4102 27.2944,67.4442 C27.2734,67.4462 27.2524,67.4482 27.2314,67.4482" id="Fill-29"></path>
                <path d="M50,100 C22.43,100 0,77.57 0,50 C0,22.43 22.43,0 50,0 C77.57,0 100,22.43 100,50 C100,62.114 95.611,73.803 87.642,82.91 L86.714,82.098 C94.485,73.215 98.766,61.815 98.766,50 C98.766,23.11 76.889,1.234 50,1.234 C23.111,1.234 1.234,23.11 1.234,50 C1.234,76.89 23.111,98.766 50,98.766 C62.976,98.766 75.188,93.726 84.388,84.576 L85.259,85.451 C75.826,94.834 63.304,100 50,100" id="Fill-31"></path>
            </g>
        </g>
    </g>
</svg>